<svg xmlns="http://www.w3.org/2000/svg" viewBox="0 0 180 180" role="img" aria-labelledby="title">
  <title id="title">RIN neon cat-ear crest</title>
  <defs>
    <linearGradient id="bg" x1="18" y1="12" x2="164" y2="172" gradientUnits="userSpaceOnUse">
      <stop stop-color="#10281d"/>
      <stop offset="0.55" stop-color="#07100e"/>
      <stop offset="1" stop-color="#250d25"/>
    </linearGradient>
    <linearGradient id="neon" x1="38" y1="39" x2="147" y2="145" gradientUnits="userSpaceOnUse">
      <stop stop-color="#c4ff55"/>
      <stop offset="0.5" stop-color="#46f5bd"/>
      <stop offset="1" stop-color="#ff5bcf"/>
    </linearGradient>
    <filter id="glow" x="-35%" y="-35%" width="170%" height="170%">
      <feGaussianBlur stdDeviation="4" result="blur"/>
      <feMerge>
        <feMergeNode in="blur"/>
        <feMergeNode in="SourceGraphic"/>
      </feMerge>
    </filter>
  </defs>
  <rect width="180" height="180" rx="40" fill="url(#bg)"/>
  <path d="M22 56h32M126 124h32M29 139h18M135 42h17" stroke="#7fff4f" stroke-width="4" stroke-linecap="round" opacity=".45"/>
  <path d="M47 61 74 75l16-31 16 31 27-14v52c0 17-19 28-43 28s-43-11-43-28V61Z" fill="#081613" stroke="url(#neon)" stroke-width="8" stroke-linejoin="round" filter="url(#glow)"/>
  <path d="M67 129V79h29c16 0 25 7 25 19s-9 19-25 19H70m29-1 24 22" fill="none" stroke="url(#neon)" stroke-width="9" stroke-linecap="round" stroke-linejoin="round"/>
  <circle cx="31" cy="37" r="5" fill="#ff5dca"/>
  <circle cx="149" cy="145" r="6" fill="#8dff51"/>
</svg>
